<mxfile host="app.diagrams.net" modified="2023-10-04T03:51:37.123Z" agent="Mozilla/5.0 (Macintosh; Intel Mac OS X 10_15_7) AppleWebKit/537.36 (KHTML, like Gecko) Chrome/117.0.0.0 Safari/537.36" etag="wAkYkW435orJwU7_7dJ6" version="21.7.5" type="github">
  <diagram id="C5RBs43oDa-KdzZeNtuy" name="Page-1">
    <mxGraphModel dx="1194" dy="792" grid="1" gridSize="10" guides="1" tooltips="1" connect="1" arrows="1" fold="1" page="1" pageScale="1" pageWidth="827" pageHeight="1169" math="0" shadow="0">
      <root>
        <mxCell id="WIyWlLk6GJQsqaUBKTNV-0" />
        <mxCell id="WIyWlLk6GJQsqaUBKTNV-1" parent="WIyWlLk6GJQsqaUBKTNV-0" />
        <mxCell id="JiNHqcxRlWNYeF-rXwPL-3" style="edgeStyle=orthogonalEdgeStyle;rounded=0;orthogonalLoop=1;jettySize=auto;html=1;exitX=0.5;exitY=1;exitDx=0;exitDy=0;entryX=0.5;entryY=0;entryDx=0;entryDy=0;fontSize=10;entryPerimeter=0;" parent="WIyWlLk6GJQsqaUBKTNV-1" source="PEDMvoowwH5u29rOamHG-0" target="CEV3KoDHD8PEOqDO0o8Z-24" edge="1">
          <mxGeometry relative="1" as="geometry" />
        </mxCell>
        <mxCell id="PEDMvoowwH5u29rOamHG-0" value="Mulai" style="ellipse;whiteSpace=wrap;html=1;fontSize=10;" parent="WIyWlLk6GJQsqaUBKTNV-1" vertex="1">
          <mxGeometry x="389" y="10" width="50" height="20" as="geometry" />
        </mxCell>
        <mxCell id="JiNHqcxRlWNYeF-rXwPL-4" value="Y" style="edgeStyle=orthogonalEdgeStyle;rounded=0;orthogonalLoop=1;jettySize=auto;html=1;exitX=0.5;exitY=1;exitDx=0;exitDy=0;entryX=0.5;entryY=0;entryDx=0;entryDy=0;fontSize=10;" parent="WIyWlLk6GJQsqaUBKTNV-1" source="PEDMvoowwH5u29rOamHG-1" target="PEDMvoowwH5u29rOamHG-2" edge="1">
          <mxGeometry relative="1" as="geometry" />
        </mxCell>
        <mxCell id="JiNHqcxRlWNYeF-rXwPL-5" style="edgeStyle=orthogonalEdgeStyle;rounded=0;orthogonalLoop=1;jettySize=auto;html=1;exitX=1;exitY=0.5;exitDx=0;exitDy=0;entryX=1;entryY=0.5;entryDx=0;entryDy=0;fontSize=10;entryPerimeter=0;" parent="WIyWlLk6GJQsqaUBKTNV-1" source="PEDMvoowwH5u29rOamHG-1" target="CEV3KoDHD8PEOqDO0o8Z-25" edge="1">
          <mxGeometry relative="1" as="geometry">
            <Array as="points">
              <mxPoint x="480" y="195" />
              <mxPoint x="480" y="131" />
            </Array>
          </mxGeometry>
        </mxCell>
        <mxCell id="JiNHqcxRlWNYeF-rXwPL-6" value="T" style="edgeLabel;html=1;align=center;verticalAlign=middle;resizable=0;points=[];fontSize=10;" parent="JiNHqcxRlWNYeF-rXwPL-5" vertex="1" connectable="0">
          <mxGeometry x="-0.248" y="-3" relative="1" as="geometry">
            <mxPoint as="offset" />
          </mxGeometry>
        </mxCell>
        <mxCell id="PEDMvoowwH5u29rOamHG-1" value="Login?" style="rhombus;whiteSpace=wrap;html=1;fontSize=10;" parent="WIyWlLk6GJQsqaUBKTNV-1" vertex="1">
          <mxGeometry x="380" y="180" width="60" height="30" as="geometry" />
        </mxCell>
        <mxCell id="JiNHqcxRlWNYeF-rXwPL-7" style="edgeStyle=orthogonalEdgeStyle;rounded=0;orthogonalLoop=1;jettySize=auto;html=1;exitX=0.5;exitY=1;exitDx=0;exitDy=0;entryX=0.5;entryY=0;entryDx=0;entryDy=0;fontSize=10;" parent="WIyWlLk6GJQsqaUBKTNV-1" source="PEDMvoowwH5u29rOamHG-2" target="JiNHqcxRlWNYeF-rXwPL-0" edge="1">
          <mxGeometry relative="1" as="geometry" />
        </mxCell>
        <mxCell id="PEDMvoowwH5u29rOamHG-2" value="&lt;div style=&quot;font-size: 10px;&quot;&gt;&lt;span style=&quot;font-size: 10px; background-color: initial;&quot;&gt;Menu :&lt;/span&gt;&lt;/div&gt;&lt;font style=&quot;font-size: 10px;&quot;&gt;&lt;div style=&quot;font-size: 10px;&quot;&gt;&lt;span style=&quot;background-color: initial; font-size: 10px;&quot;&gt;1. Data Master&lt;/span&gt;&lt;/div&gt;&lt;div style=&quot;font-size: 10px;&quot;&gt;&lt;span style=&quot;background-color: initial; font-size: 10px;&quot;&gt;2. Data Transaksi&lt;/span&gt;&lt;/div&gt;&lt;div style=&quot;font-size: 10px;&quot;&gt;&lt;span style=&quot;background-color: initial; font-size: 10px;&quot;&gt;3. Grafik dan Rekap Data&lt;/span&gt;&lt;/div&gt;&lt;/font&gt;" style="rounded=0;whiteSpace=wrap;html=1;align=center;fontSize=10;" parent="WIyWlLk6GJQsqaUBKTNV-1" vertex="1">
          <mxGeometry x="340" y="240" width="140" height="60" as="geometry" />
        </mxCell>
        <mxCell id="JiNHqcxRlWNYeF-rXwPL-8" style="edgeStyle=orthogonalEdgeStyle;rounded=0;orthogonalLoop=1;jettySize=auto;html=1;exitX=1;exitY=0.5;exitDx=0;exitDy=0;entryX=0;entryY=0.5;entryDx=0;entryDy=0;fontSize=10;" parent="WIyWlLk6GJQsqaUBKTNV-1" source="JiNHqcxRlWNYeF-rXwPL-0" target="JiNHqcxRlWNYeF-rXwPL-2" edge="1">
          <mxGeometry relative="1" as="geometry" />
        </mxCell>
        <mxCell id="JiNHqcxRlWNYeF-rXwPL-9" value="T" style="edgeLabel;html=1;align=center;verticalAlign=middle;resizable=0;points=[];fontSize=10;" parent="JiNHqcxRlWNYeF-rXwPL-8" vertex="1" connectable="0">
          <mxGeometry x="0.15" y="2" relative="1" as="geometry">
            <mxPoint as="offset" />
          </mxGeometry>
        </mxCell>
        <mxCell id="ZIuvK2Msw9qaPoizuIzn-37" style="edgeStyle=orthogonalEdgeStyle;rounded=0;orthogonalLoop=1;jettySize=auto;html=1;exitX=0.5;exitY=1;exitDx=0;exitDy=0;entryX=0.5;entryY=0;entryDx=0;entryDy=0;" parent="WIyWlLk6GJQsqaUBKTNV-1" source="JiNHqcxRlWNYeF-rXwPL-0" target="ZIuvK2Msw9qaPoizuIzn-0" edge="1">
          <mxGeometry relative="1" as="geometry" />
        </mxCell>
        <mxCell id="ZIuvK2Msw9qaPoizuIzn-38" value="Y" style="edgeLabel;html=1;align=center;verticalAlign=middle;resizable=0;points=[];" parent="ZIuvK2Msw9qaPoizuIzn-37" vertex="1" connectable="0">
          <mxGeometry x="-0.0125" y="1" relative="1" as="geometry">
            <mxPoint y="-1" as="offset" />
          </mxGeometry>
        </mxCell>
        <mxCell id="JiNHqcxRlWNYeF-rXwPL-0" value="1?" style="rhombus;whiteSpace=wrap;html=1;fontSize=10;" parent="WIyWlLk6GJQsqaUBKTNV-1" vertex="1">
          <mxGeometry x="33" y="340" width="50" height="30" as="geometry" />
        </mxCell>
        <mxCell id="JiNHqcxRlWNYeF-rXwPL-12" style="edgeStyle=orthogonalEdgeStyle;rounded=0;orthogonalLoop=1;jettySize=auto;html=1;exitX=1;exitY=0.5;exitDx=0;exitDy=0;entryX=0;entryY=0.5;entryDx=0;entryDy=0;fontSize=10;" parent="WIyWlLk6GJQsqaUBKTNV-1" source="JiNHqcxRlWNYeF-rXwPL-1" target="JiNHqcxRlWNYeF-rXwPL-11" edge="1">
          <mxGeometry relative="1" as="geometry" />
        </mxCell>
        <mxCell id="CEV3KoDHD8PEOqDO0o8Z-17" value="T" style="edgeLabel;html=1;align=center;verticalAlign=middle;resizable=0;points=[];" vertex="1" connectable="0" parent="JiNHqcxRlWNYeF-rXwPL-12">
          <mxGeometry x="-0.132" y="3" relative="1" as="geometry">
            <mxPoint as="offset" />
          </mxGeometry>
        </mxCell>
        <mxCell id="ZIuvK2Msw9qaPoizuIzn-60" style="edgeStyle=orthogonalEdgeStyle;rounded=0;orthogonalLoop=1;jettySize=auto;html=1;exitX=0.5;exitY=1;exitDx=0;exitDy=0;entryX=0.5;entryY=0;entryDx=0;entryDy=0;" parent="WIyWlLk6GJQsqaUBKTNV-1" source="JiNHqcxRlWNYeF-rXwPL-1" target="ZIuvK2Msw9qaPoizuIzn-59" edge="1">
          <mxGeometry relative="1" as="geometry" />
        </mxCell>
        <mxCell id="ZIuvK2Msw9qaPoizuIzn-61" value="Y" style="edgeLabel;html=1;align=center;verticalAlign=middle;resizable=0;points=[];" parent="ZIuvK2Msw9qaPoizuIzn-60" vertex="1" connectable="0">
          <mxGeometry x="-0.0179" y="1" relative="1" as="geometry">
            <mxPoint as="offset" />
          </mxGeometry>
        </mxCell>
        <mxCell id="JiNHqcxRlWNYeF-rXwPL-1" value="3?" style="rhombus;whiteSpace=wrap;html=1;fontSize=10;" parent="WIyWlLk6GJQsqaUBKTNV-1" vertex="1">
          <mxGeometry x="385" y="340" width="50" height="30" as="geometry" />
        </mxCell>
        <mxCell id="JiNHqcxRlWNYeF-rXwPL-10" value="T" style="edgeStyle=orthogonalEdgeStyle;rounded=0;orthogonalLoop=1;jettySize=auto;html=1;exitX=1;exitY=0.5;exitDx=0;exitDy=0;fontSize=10;entryX=0;entryY=0.5;entryDx=0;entryDy=0;" parent="WIyWlLk6GJQsqaUBKTNV-1" source="JiNHqcxRlWNYeF-rXwPL-2" target="JiNHqcxRlWNYeF-rXwPL-1" edge="1">
          <mxGeometry relative="1" as="geometry" />
        </mxCell>
        <mxCell id="ZIuvK2Msw9qaPoizuIzn-41" style="edgeStyle=orthogonalEdgeStyle;rounded=0;orthogonalLoop=1;jettySize=auto;html=1;exitX=0.5;exitY=1;exitDx=0;exitDy=0;entryX=0.5;entryY=0;entryDx=0;entryDy=0;" parent="WIyWlLk6GJQsqaUBKTNV-1" source="JiNHqcxRlWNYeF-rXwPL-2" target="ZIuvK2Msw9qaPoizuIzn-32" edge="1">
          <mxGeometry relative="1" as="geometry" />
        </mxCell>
        <mxCell id="ZIuvK2Msw9qaPoizuIzn-42" value="Y" style="edgeLabel;html=1;align=center;verticalAlign=middle;resizable=0;points=[];" parent="ZIuvK2Msw9qaPoizuIzn-41" vertex="1" connectable="0">
          <mxGeometry x="0.0123" relative="1" as="geometry">
            <mxPoint as="offset" />
          </mxGeometry>
        </mxCell>
        <mxCell id="JiNHqcxRlWNYeF-rXwPL-2" value="2?" style="rhombus;whiteSpace=wrap;html=1;fontSize=10;" parent="WIyWlLk6GJQsqaUBKTNV-1" vertex="1">
          <mxGeometry x="185" y="340" width="50" height="30" as="geometry" />
        </mxCell>
        <mxCell id="JiNHqcxRlWNYeF-rXwPL-11" value="Selesai" style="ellipse;whiteSpace=wrap;html=1;fontSize=10;" parent="WIyWlLk6GJQsqaUBKTNV-1" vertex="1">
          <mxGeometry x="530" y="340" width="60" height="30" as="geometry" />
        </mxCell>
        <mxCell id="ZIuvK2Msw9qaPoizuIzn-4" style="edgeStyle=orthogonalEdgeStyle;rounded=0;orthogonalLoop=1;jettySize=auto;html=1;exitX=0.5;exitY=1;exitDx=0;exitDy=0;fontSize=10;" parent="WIyWlLk6GJQsqaUBKTNV-1" source="ZIuvK2Msw9qaPoizuIzn-0" target="ZIuvK2Msw9qaPoizuIzn-3" edge="1">
          <mxGeometry relative="1" as="geometry" />
        </mxCell>
        <mxCell id="ZIuvK2Msw9qaPoizuIzn-0" value="Data Master :&lt;br style=&quot;font-size: 10px;&quot;&gt;1. Data Koran&lt;br style=&quot;font-size: 10px;&quot;&gt;2. Data Kurir&lt;br style=&quot;font-size: 10px;&quot;&gt;3. Data Pelanggan" style="rounded=0;whiteSpace=wrap;html=1;fontSize=10;" parent="WIyWlLk6GJQsqaUBKTNV-1" vertex="1">
          <mxGeometry x="10" y="410" width="95" height="50" as="geometry" />
        </mxCell>
        <mxCell id="ZIuvK2Msw9qaPoizuIzn-13" style="edgeStyle=orthogonalEdgeStyle;rounded=0;orthogonalLoop=1;jettySize=auto;html=1;exitX=1;exitY=0.5;exitDx=0;exitDy=0;entryX=0;entryY=0.5;entryDx=0;entryDy=0;fontSize=10;" parent="WIyWlLk6GJQsqaUBKTNV-1" source="ZIuvK2Msw9qaPoizuIzn-3" target="ZIuvK2Msw9qaPoizuIzn-6" edge="1">
          <mxGeometry relative="1" as="geometry" />
        </mxCell>
        <mxCell id="ZIuvK2Msw9qaPoizuIzn-25" value="T" style="edgeLabel;html=1;align=center;verticalAlign=middle;resizable=0;points=[];fontSize=10;" parent="ZIuvK2Msw9qaPoizuIzn-13" vertex="1" connectable="0">
          <mxGeometry x="-0.0667" y="-1" relative="1" as="geometry">
            <mxPoint as="offset" />
          </mxGeometry>
        </mxCell>
        <mxCell id="ZIuvK2Msw9qaPoizuIzn-43" style="edgeStyle=orthogonalEdgeStyle;rounded=0;orthogonalLoop=1;jettySize=auto;html=1;exitX=0.5;exitY=1;exitDx=0;exitDy=0;entryX=0.5;entryY=0;entryDx=0;entryDy=0;" parent="WIyWlLk6GJQsqaUBKTNV-1" source="ZIuvK2Msw9qaPoizuIzn-3" target="ZIuvK2Msw9qaPoizuIzn-5" edge="1">
          <mxGeometry relative="1" as="geometry" />
        </mxCell>
        <mxCell id="ZIuvK2Msw9qaPoizuIzn-44" value="Y" style="edgeLabel;html=1;align=center;verticalAlign=middle;resizable=0;points=[];" parent="ZIuvK2Msw9qaPoizuIzn-43" vertex="1" connectable="0">
          <mxGeometry x="-0.1742" y="-1" relative="1" as="geometry">
            <mxPoint as="offset" />
          </mxGeometry>
        </mxCell>
        <mxCell id="ZIuvK2Msw9qaPoizuIzn-3" value="1?" style="rhombus;whiteSpace=wrap;html=1;fontSize=10;" parent="WIyWlLk6GJQsqaUBKTNV-1" vertex="1">
          <mxGeometry x="33" y="490" width="50" height="30" as="geometry" />
        </mxCell>
        <mxCell id="ZIuvK2Msw9qaPoizuIzn-18" style="edgeStyle=orthogonalEdgeStyle;rounded=0;orthogonalLoop=1;jettySize=auto;html=1;exitX=0.5;exitY=1;exitDx=0;exitDy=0;entryX=0;entryY=0.5;entryDx=0;entryDy=0;entryPerimeter=0;fontSize=10;" parent="WIyWlLk6GJQsqaUBKTNV-1" source="ZIuvK2Msw9qaPoizuIzn-5" target="CEV3KoDHD8PEOqDO0o8Z-18" edge="1">
          <mxGeometry relative="1" as="geometry" />
        </mxCell>
        <mxCell id="ZIuvK2Msw9qaPoizuIzn-5" value="Tambah/Edit/Hapus&lt;br style=&quot;font-size: 10px;&quot;&gt;Data Stok Koran" style="rounded=0;whiteSpace=wrap;html=1;fontSize=10;" parent="WIyWlLk6GJQsqaUBKTNV-1" vertex="1">
          <mxGeometry x="10" y="555" width="91" height="30" as="geometry" />
        </mxCell>
        <mxCell id="ZIuvK2Msw9qaPoizuIzn-16" style="edgeStyle=orthogonalEdgeStyle;rounded=0;orthogonalLoop=1;jettySize=auto;html=1;exitX=0.5;exitY=1;exitDx=0;exitDy=0;entryX=0.5;entryY=0;entryDx=0;entryDy=0;fontSize=10;" parent="WIyWlLk6GJQsqaUBKTNV-1" source="ZIuvK2Msw9qaPoizuIzn-6" target="ZIuvK2Msw9qaPoizuIzn-21" edge="1">
          <mxGeometry relative="1" as="geometry">
            <mxPoint x="230" y="645" as="targetPoint" />
          </mxGeometry>
        </mxCell>
        <mxCell id="ZIuvK2Msw9qaPoizuIzn-36" value="Y" style="edgeLabel;html=1;align=center;verticalAlign=middle;resizable=0;points=[];fontSize=10;" parent="ZIuvK2Msw9qaPoizuIzn-16" vertex="1" connectable="0">
          <mxGeometry x="-0.0172" y="-1" relative="1" as="geometry">
            <mxPoint as="offset" />
          </mxGeometry>
        </mxCell>
        <mxCell id="ZIuvK2Msw9qaPoizuIzn-23" style="edgeStyle=orthogonalEdgeStyle;rounded=0;orthogonalLoop=1;jettySize=auto;html=1;exitX=1;exitY=0.5;exitDx=0;exitDy=0;entryX=0.5;entryY=0;entryDx=0;entryDy=0;fontSize=10;" parent="WIyWlLk6GJQsqaUBKTNV-1" source="ZIuvK2Msw9qaPoizuIzn-6" target="ZIuvK2Msw9qaPoizuIzn-20" edge="1">
          <mxGeometry relative="1" as="geometry" />
        </mxCell>
        <mxCell id="ZIuvK2Msw9qaPoizuIzn-24" value="T" style="edgeLabel;html=1;align=center;verticalAlign=middle;resizable=0;points=[];fontSize=10;" parent="ZIuvK2Msw9qaPoizuIzn-23" vertex="1" connectable="0">
          <mxGeometry x="-0.2737" relative="1" as="geometry">
            <mxPoint as="offset" />
          </mxGeometry>
        </mxCell>
        <mxCell id="ZIuvK2Msw9qaPoizuIzn-6" value="2?" style="rhombus;whiteSpace=wrap;html=1;fontSize=10;" parent="WIyWlLk6GJQsqaUBKTNV-1" vertex="1">
          <mxGeometry x="128" y="490" width="50" height="30" as="geometry" />
        </mxCell>
        <mxCell id="ZIuvK2Msw9qaPoizuIzn-27" style="edgeStyle=orthogonalEdgeStyle;rounded=0;orthogonalLoop=1;jettySize=auto;html=1;exitX=0.5;exitY=1;exitDx=0;exitDy=0;entryX=0;entryY=0.5;entryDx=0;entryDy=0;entryPerimeter=0;fontSize=10;" parent="WIyWlLk6GJQsqaUBKTNV-1" source="ZIuvK2Msw9qaPoizuIzn-20" target="CEV3KoDHD8PEOqDO0o8Z-18" edge="1">
          <mxGeometry relative="1" as="geometry" />
        </mxCell>
        <mxCell id="ZIuvK2Msw9qaPoizuIzn-20" value="Tambah/Edit/Hapus&lt;br style=&quot;font-size: 10px;&quot;&gt;Data Pelanggan" style="rounded=0;whiteSpace=wrap;html=1;fontSize=10;" parent="WIyWlLk6GJQsqaUBKTNV-1" vertex="1">
          <mxGeometry x="206" y="555" width="90" height="30" as="geometry" />
        </mxCell>
        <mxCell id="ZIuvK2Msw9qaPoizuIzn-26" style="edgeStyle=orthogonalEdgeStyle;rounded=0;orthogonalLoop=1;jettySize=auto;html=1;exitX=0.5;exitY=1;exitDx=0;exitDy=0;entryX=0;entryY=0.5;entryDx=0;entryDy=0;entryPerimeter=0;fontSize=10;" parent="WIyWlLk6GJQsqaUBKTNV-1" source="ZIuvK2Msw9qaPoizuIzn-21" target="CEV3KoDHD8PEOqDO0o8Z-18" edge="1">
          <mxGeometry relative="1" as="geometry" />
        </mxCell>
        <mxCell id="ZIuvK2Msw9qaPoizuIzn-21" value="Tambah/Edit/Hapus&lt;br style=&quot;border-color: var(--border-color);&quot;&gt;Data Kurir" style="rounded=0;whiteSpace=wrap;html=1;fontSize=10;" parent="WIyWlLk6GJQsqaUBKTNV-1" vertex="1">
          <mxGeometry x="108" y="555" width="90" height="30" as="geometry" />
        </mxCell>
        <mxCell id="ZIuvK2Msw9qaPoizuIzn-54" style="edgeStyle=orthogonalEdgeStyle;rounded=0;orthogonalLoop=1;jettySize=auto;html=1;exitX=1;exitY=0.5;exitDx=0;exitDy=0;entryX=0.25;entryY=0;entryDx=0;entryDy=0;" parent="WIyWlLk6GJQsqaUBKTNV-1" source="ZIuvK2Msw9qaPoizuIzn-32" target="ZIuvK2Msw9qaPoizuIzn-51" edge="1">
          <mxGeometry relative="1" as="geometry">
            <mxPoint x="342.28999999999996" y="490" as="targetPoint" />
          </mxGeometry>
        </mxCell>
        <mxCell id="ZIuvK2Msw9qaPoizuIzn-32" value="Data Transaksi :&lt;br&gt;1. Data Distribusi Koran" style="rounded=0;whiteSpace=wrap;html=1;fontSize=10;" parent="WIyWlLk6GJQsqaUBKTNV-1" vertex="1">
          <mxGeometry x="153" y="410" width="115" height="50" as="geometry" />
        </mxCell>
        <mxCell id="CEV3KoDHD8PEOqDO0o8Z-19" style="edgeStyle=orthogonalEdgeStyle;rounded=0;orthogonalLoop=1;jettySize=auto;html=1;exitX=0.5;exitY=1;exitDx=0;exitDy=0;entryX=0.5;entryY=0;entryDx=0;entryDy=0;entryPerimeter=0;" edge="1" parent="WIyWlLk6GJQsqaUBKTNV-1" source="ZIuvK2Msw9qaPoizuIzn-51" target="CEV3KoDHD8PEOqDO0o8Z-18">
          <mxGeometry relative="1" as="geometry" />
        </mxCell>
        <mxCell id="ZIuvK2Msw9qaPoizuIzn-51" value="Tambah/Edit/Hapus&lt;br style=&quot;font-size: 10px;&quot;&gt;Data Distribusi Koran" style="rounded=0;whiteSpace=wrap;html=1;fontSize=10;" parent="WIyWlLk6GJQsqaUBKTNV-1" vertex="1">
          <mxGeometry x="305.99999999999994" y="555" width="105" height="30" as="geometry" />
        </mxCell>
        <mxCell id="ZIuvK2Msw9qaPoizuIzn-76" style="edgeStyle=orthogonalEdgeStyle;rounded=0;orthogonalLoop=1;jettySize=auto;html=1;exitX=0.5;exitY=1;exitDx=0;exitDy=0;entryX=-0.009;entryY=0.54;entryDx=0;entryDy=0;entryPerimeter=0;" parent="WIyWlLk6GJQsqaUBKTNV-1" source="ZIuvK2Msw9qaPoizuIzn-59" target="ZIuvK2Msw9qaPoizuIzn-73" edge="1">
          <mxGeometry relative="1" as="geometry">
            <Array as="points">
              <mxPoint x="410" y="506" />
              <mxPoint x="438" y="506" />
            </Array>
          </mxGeometry>
        </mxCell>
        <mxCell id="ZIuvK2Msw9qaPoizuIzn-59" value="Grafik dan Rekap Data :&lt;br style=&quot;font-size: 10px;&quot;&gt;1. Peta Sebaran Pelanggan&lt;br&gt;2. Rekap Distribusi Koran&lt;br&gt;3. Rekap Kinerja Kurir&lt;br&gt;4. Rekap Data Pelanggan" style="rounded=0;whiteSpace=wrap;html=1;fontSize=10;" parent="WIyWlLk6GJQsqaUBKTNV-1" vertex="1">
          <mxGeometry x="346.25" y="410" width="127.5" height="70" as="geometry" />
        </mxCell>
        <mxCell id="ZIuvK2Msw9qaPoizuIzn-69" style="edgeStyle=orthogonalEdgeStyle;rounded=0;orthogonalLoop=1;jettySize=auto;html=1;exitX=0.5;exitY=1;exitDx=0;exitDy=0;entryX=0.5;entryY=0;entryDx=0;entryDy=0;fontSize=10;entryPerimeter=0;" parent="WIyWlLk6GJQsqaUBKTNV-1" source="ZIuvK2Msw9qaPoizuIzn-73" target="CEV3KoDHD8PEOqDO0o8Z-5" edge="1">
          <mxGeometry relative="1" as="geometry">
            <mxPoint x="462.9999999999999" y="555" as="targetPoint" />
          </mxGeometry>
        </mxCell>
        <mxCell id="ZIuvK2Msw9qaPoizuIzn-70" value="Y" style="edgeLabel;html=1;align=center;verticalAlign=middle;resizable=0;points=[];fontSize=10;" parent="ZIuvK2Msw9qaPoizuIzn-69" vertex="1" connectable="0">
          <mxGeometry x="-0.0172" y="-1" relative="1" as="geometry">
            <mxPoint as="offset" />
          </mxGeometry>
        </mxCell>
        <mxCell id="ZIuvK2Msw9qaPoizuIzn-71" style="edgeStyle=orthogonalEdgeStyle;rounded=0;orthogonalLoop=1;jettySize=auto;html=1;exitX=1;exitY=0.5;exitDx=0;exitDy=0;entryX=0;entryY=0.5;entryDx=0;entryDy=0;fontSize=10;" parent="WIyWlLk6GJQsqaUBKTNV-1" source="ZIuvK2Msw9qaPoizuIzn-73" target="CEV3KoDHD8PEOqDO0o8Z-4" edge="1">
          <mxGeometry relative="1" as="geometry">
            <mxPoint x="560" y="555" as="targetPoint" />
          </mxGeometry>
        </mxCell>
        <mxCell id="ZIuvK2Msw9qaPoizuIzn-72" value="T" style="edgeLabel;html=1;align=center;verticalAlign=middle;resizable=0;points=[];fontSize=10;" parent="ZIuvK2Msw9qaPoizuIzn-71" vertex="1" connectable="0">
          <mxGeometry x="-0.2737" relative="1" as="geometry">
            <mxPoint as="offset" />
          </mxGeometry>
        </mxCell>
        <mxCell id="ZIuvK2Msw9qaPoizuIzn-73" value="1?" style="rhombus;whiteSpace=wrap;html=1;fontSize=10;" parent="WIyWlLk6GJQsqaUBKTNV-1" vertex="1">
          <mxGeometry x="438" y="490" width="50" height="30" as="geometry" />
        </mxCell>
        <mxCell id="CEV3KoDHD8PEOqDO0o8Z-1" value="Rekap Distribusi Koran" style="shape=document;whiteSpace=wrap;html=1;boundedLbl=1;" vertex="1" parent="WIyWlLk6GJQsqaUBKTNV-1">
          <mxGeometry x="520" y="551" width="90" height="50" as="geometry" />
        </mxCell>
        <mxCell id="CEV3KoDHD8PEOqDO0o8Z-2" value="Rekap Kinerja Kurir" style="shape=document;whiteSpace=wrap;html=1;boundedLbl=1;" vertex="1" parent="WIyWlLk6GJQsqaUBKTNV-1">
          <mxGeometry x="620" y="551" width="80" height="50" as="geometry" />
        </mxCell>
        <mxCell id="CEV3KoDHD8PEOqDO0o8Z-3" value="Rekap Pelanggan" style="shape=document;whiteSpace=wrap;html=1;boundedLbl=1;" vertex="1" parent="WIyWlLk6GJQsqaUBKTNV-1">
          <mxGeometry x="710" y="551" width="70" height="50" as="geometry" />
        </mxCell>
        <mxCell id="CEV3KoDHD8PEOqDO0o8Z-6" style="edgeStyle=orthogonalEdgeStyle;rounded=0;orthogonalLoop=1;jettySize=auto;html=1;entryX=0.5;entryY=0;entryDx=0;entryDy=0;" edge="1" parent="WIyWlLk6GJQsqaUBKTNV-1" source="CEV3KoDHD8PEOqDO0o8Z-4" target="CEV3KoDHD8PEOqDO0o8Z-1">
          <mxGeometry relative="1" as="geometry" />
        </mxCell>
        <mxCell id="CEV3KoDHD8PEOqDO0o8Z-12" value="Y" style="edgeLabel;html=1;align=center;verticalAlign=middle;resizable=0;points=[];" vertex="1" connectable="0" parent="CEV3KoDHD8PEOqDO0o8Z-6">
          <mxGeometry x="-0.6138" relative="1" as="geometry">
            <mxPoint as="offset" />
          </mxGeometry>
        </mxCell>
        <mxCell id="CEV3KoDHD8PEOqDO0o8Z-10" style="edgeStyle=orthogonalEdgeStyle;rounded=0;orthogonalLoop=1;jettySize=auto;html=1;entryX=0;entryY=0.5;entryDx=0;entryDy=0;" edge="1" parent="WIyWlLk6GJQsqaUBKTNV-1" source="CEV3KoDHD8PEOqDO0o8Z-4" target="CEV3KoDHD8PEOqDO0o8Z-9">
          <mxGeometry relative="1" as="geometry" />
        </mxCell>
        <mxCell id="CEV3KoDHD8PEOqDO0o8Z-11" value="T" style="edgeLabel;html=1;align=center;verticalAlign=middle;resizable=0;points=[];" vertex="1" connectable="0" parent="CEV3KoDHD8PEOqDO0o8Z-10">
          <mxGeometry x="-0.3128" y="-1" relative="1" as="geometry">
            <mxPoint as="offset" />
          </mxGeometry>
        </mxCell>
        <mxCell id="CEV3KoDHD8PEOqDO0o8Z-4" value="2?" style="rhombus;whiteSpace=wrap;html=1;fontSize=10;" vertex="1" parent="WIyWlLk6GJQsqaUBKTNV-1">
          <mxGeometry x="540" y="490" width="50" height="30" as="geometry" />
        </mxCell>
        <mxCell id="CEV3KoDHD8PEOqDO0o8Z-5" value="Peta Sebaran Pelanggan" style="strokeWidth=2;html=1;shape=mxgraph.flowchart.display;whiteSpace=wrap;" vertex="1" parent="WIyWlLk6GJQsqaUBKTNV-1">
          <mxGeometry x="418" y="551" width="90" height="50" as="geometry" />
        </mxCell>
        <mxCell id="CEV3KoDHD8PEOqDO0o8Z-13" style="edgeStyle=orthogonalEdgeStyle;rounded=0;orthogonalLoop=1;jettySize=auto;html=1;entryX=0.5;entryY=0;entryDx=0;entryDy=0;" edge="1" parent="WIyWlLk6GJQsqaUBKTNV-1" source="CEV3KoDHD8PEOqDO0o8Z-9" target="CEV3KoDHD8PEOqDO0o8Z-2">
          <mxGeometry relative="1" as="geometry" />
        </mxCell>
        <mxCell id="CEV3KoDHD8PEOqDO0o8Z-15" value="Y" style="edgeLabel;html=1;align=center;verticalAlign=middle;resizable=0;points=[];" vertex="1" connectable="0" parent="CEV3KoDHD8PEOqDO0o8Z-13">
          <mxGeometry x="-0.5824" relative="1" as="geometry">
            <mxPoint as="offset" />
          </mxGeometry>
        </mxCell>
        <mxCell id="CEV3KoDHD8PEOqDO0o8Z-14" style="edgeStyle=orthogonalEdgeStyle;rounded=0;orthogonalLoop=1;jettySize=auto;html=1;entryX=0.5;entryY=0;entryDx=0;entryDy=0;" edge="1" parent="WIyWlLk6GJQsqaUBKTNV-1" source="CEV3KoDHD8PEOqDO0o8Z-9" target="CEV3KoDHD8PEOqDO0o8Z-3">
          <mxGeometry relative="1" as="geometry" />
        </mxCell>
        <mxCell id="CEV3KoDHD8PEOqDO0o8Z-16" value="T" style="edgeLabel;html=1;align=center;verticalAlign=middle;resizable=0;points=[];" vertex="1" connectable="0" parent="CEV3KoDHD8PEOqDO0o8Z-14">
          <mxGeometry x="-0.2656" y="2" relative="1" as="geometry">
            <mxPoint as="offset" />
          </mxGeometry>
        </mxCell>
        <mxCell id="CEV3KoDHD8PEOqDO0o8Z-9" value="3?" style="rhombus;whiteSpace=wrap;html=1;fontSize=10;" vertex="1" parent="WIyWlLk6GJQsqaUBKTNV-1">
          <mxGeometry x="635" y="490" width="50" height="30" as="geometry" />
        </mxCell>
        <mxCell id="CEV3KoDHD8PEOqDO0o8Z-20" style="edgeStyle=orthogonalEdgeStyle;rounded=0;orthogonalLoop=1;jettySize=auto;html=1;exitX=1;exitY=0.5;exitDx=0;exitDy=0;exitPerimeter=0;entryX=0.5;entryY=1;entryDx=0;entryDy=0;entryPerimeter=0;" edge="1" parent="WIyWlLk6GJQsqaUBKTNV-1" source="CEV3KoDHD8PEOqDO0o8Z-18" target="CEV3KoDHD8PEOqDO0o8Z-5">
          <mxGeometry relative="1" as="geometry" />
        </mxCell>
        <mxCell id="CEV3KoDHD8PEOqDO0o8Z-21" style="edgeStyle=orthogonalEdgeStyle;rounded=0;orthogonalLoop=1;jettySize=auto;html=1;entryX=0.667;entryY=0.81;entryDx=0;entryDy=0;entryPerimeter=0;" edge="1" parent="WIyWlLk6GJQsqaUBKTNV-1" source="CEV3KoDHD8PEOqDO0o8Z-18" target="CEV3KoDHD8PEOqDO0o8Z-1">
          <mxGeometry relative="1" as="geometry" />
        </mxCell>
        <mxCell id="CEV3KoDHD8PEOqDO0o8Z-22" style="edgeStyle=orthogonalEdgeStyle;rounded=0;orthogonalLoop=1;jettySize=auto;html=1;entryX=0.6;entryY=0.77;entryDx=0;entryDy=0;entryPerimeter=0;" edge="1" parent="WIyWlLk6GJQsqaUBKTNV-1" source="CEV3KoDHD8PEOqDO0o8Z-18" target="CEV3KoDHD8PEOqDO0o8Z-2">
          <mxGeometry relative="1" as="geometry" />
        </mxCell>
        <mxCell id="CEV3KoDHD8PEOqDO0o8Z-23" style="edgeStyle=orthogonalEdgeStyle;rounded=0;orthogonalLoop=1;jettySize=auto;html=1;entryX=0.714;entryY=0.78;entryDx=0;entryDy=0;entryPerimeter=0;" edge="1" parent="WIyWlLk6GJQsqaUBKTNV-1" source="CEV3KoDHD8PEOqDO0o8Z-18" target="CEV3KoDHD8PEOqDO0o8Z-3">
          <mxGeometry relative="1" as="geometry" />
        </mxCell>
        <mxCell id="CEV3KoDHD8PEOqDO0o8Z-18" value="Basis Data" style="strokeWidth=2;html=1;shape=mxgraph.flowchart.database;whiteSpace=wrap;" vertex="1" parent="WIyWlLk6GJQsqaUBKTNV-1">
          <mxGeometry x="323.5" y="611" width="70" height="60" as="geometry" />
        </mxCell>
        <mxCell id="CEV3KoDHD8PEOqDO0o8Z-28" style="edgeStyle=orthogonalEdgeStyle;rounded=0;orthogonalLoop=1;jettySize=auto;html=1;exitX=0.5;exitY=1;exitDx=0;exitDy=0;exitPerimeter=0;entryX=0.5;entryY=0;entryDx=0;entryDy=0;entryPerimeter=0;" edge="1" parent="WIyWlLk6GJQsqaUBKTNV-1" source="CEV3KoDHD8PEOqDO0o8Z-24" target="CEV3KoDHD8PEOqDO0o8Z-25">
          <mxGeometry relative="1" as="geometry" />
        </mxCell>
        <mxCell id="CEV3KoDHD8PEOqDO0o8Z-24" value="Landing Page" style="strokeWidth=2;html=1;shape=mxgraph.flowchart.display;whiteSpace=wrap;" vertex="1" parent="WIyWlLk6GJQsqaUBKTNV-1">
          <mxGeometry x="369" y="50" width="90" height="42" as="geometry" />
        </mxCell>
        <mxCell id="CEV3KoDHD8PEOqDO0o8Z-27" style="edgeStyle=orthogonalEdgeStyle;rounded=0;orthogonalLoop=1;jettySize=auto;html=1;entryX=0.5;entryY=0;entryDx=0;entryDy=0;" edge="1" parent="WIyWlLk6GJQsqaUBKTNV-1" source="CEV3KoDHD8PEOqDO0o8Z-25" target="PEDMvoowwH5u29rOamHG-1">
          <mxGeometry relative="1" as="geometry" />
        </mxCell>
        <mxCell id="CEV3KoDHD8PEOqDO0o8Z-25" value="Halaman Login" style="strokeWidth=2;html=1;shape=mxgraph.flowchart.display;whiteSpace=wrap;" vertex="1" parent="WIyWlLk6GJQsqaUBKTNV-1">
          <mxGeometry x="364" y="110" width="90" height="42" as="geometry" />
        </mxCell>
      </root>
    </mxGraphModel>
  </diagram>
</mxfile>
